<svg xmlns="http://www.w3.org/2000/svg" width="296" height="299" viewBox="0 0 296 299">
<g transform="translate(0.000000,299.000000) scale(0.100000,-0.100000)"
fill="#9ca3af" stroke="none">
<path d="M1025 2248 c-319 -367 -589 -679 -599 -693 l-20 -25 225 -228 c293
-296 441 -467 551 -636 21 -33 38 -54 38 -47 0 29 -94 243 -151 342 -89 156
-204 304 -357 461 l-134 137 18 24 c57 72 1030 1187 1036 1187 4 0 73 -57 153
-126 l146 -127 -24 -26 c-31 -33 -668 -770 -685 -793 -12 -15 -6 -29 47 -108
147 -219 214 -429 215 -667 1 -73 2 -133 2 -133 1 0 399 445 421 471 12 15 11
29 -13 103 -14 48 -25 89 -23 91 3 2 55 7 117 11 l113 7 245 294 c135 161 243
297 240 301 -2 4 -49 45 -104 92 -97 83 -100 87 -136 175 -61 146 -206 373
-241 374 -5 0 -32 -26 -60 -59 -27 -33 -53 -59 -57 -57 -4 1 -82 67 -174 147
-92 80 -177 152 -188 161 -20 15 -39 -5 -601 -653z"/>
<path d="M1180 2144 c-256 -294 -471 -544 -479 -555 -13 -19 -9 -25 51 -87
179 -185 330 -394 405 -562 33 -72 34 -73 27 -30 -26 178 -131 428 -274 657
l-58 92 423 488 424 488 -21 22 c-12 13 -24 23 -27 23 -3 0 -215 -241 -471
-536z"/>
<path d="M1343 2124 l-421 -486 46 -57 c188 -230 303 -520 319 -800 l6 -104
19 36 c48 95 63 284 33 427 -31 149 -104 323 -203 488 l-50 82 365 421 366
421 -29 29 -29 29 -422 -486z"/>
<path d="M2765 1555 c-71 -18 -274 -68 -450 -111 l-320 -77 99 -93 c54 -51 96
-97 95 -101 -7 -14 -835 -833 -843 -833 -5 0 -172 161 -372 359 -282 278 -370
360 -395 365 -39 7 -350 6 -440 -3 l-66 -6 496 -503 496 -502 271 0 270 0 405
391 c222 215 420 407 440 425 l35 34 96 -90 97 -91 9 33 c5 18 62 211 126 429
64 218 116 399 116 402 0 12 -30 6 -165 -28z"/>
</g>
</svg>
